# xmcd
#
# Track frame offsets:
# 150
# 16512
# 35020
# 53452
# 73182
# 89940
# 108060
# 130247
# 141092
# 155252
# 169045
# 187800
# 207580
#
# Disc length: 2961 seconds
#
#
# Revision: 0
# Processed by: cddbd v1.5.1PL0 Copyright (c) Steve Scherf et al.
# Submitted via: FreeRIP 2.35 
#
DISCID=ab0b8f0d
DTITLE=Mick Hart - No Compromise
DYEAR=1900
DGENRE=Alternative
TTITLE0=Empty as it Comes
TTITLE1=Over Your Head
TTITLE2=Photographs
TTITLE3=Even When
TTITLE4=Bed Lonely People
TTITLE5=On the Way Down
TTITLE6=Nothing Left to Lose
TTITLE7=Let Me Dream
TTITLE8=In An Ordinary Day
TTITLE9=To The End
TTITLE10=No Compromise
TTITLE11=Here Comes My Mind
TTITLE12=Beautiful Day
EXTD=
EXTT0=
EXTT1=
EXTT2=
EXTT3=
EXTT4=
EXTT5=
EXTT6=
EXTT7=
EXTT8=
EXTT9=
EXTT10=
EXTT11=
EXTT12=
PLAYORDER=
